{"title":"Six Nations - 2013 - M09 - Scotland Vs Ireland (RTE2HD Coverage)","uid":8191147,"size":6157650668,"categoryP":"video","categoryS":"hd___tv_shows","magnet":"?xt=urn:btih:40de81f968183ef23bb9cb11d533a7f4a5e0d6d9&amp;dn=Six+Nations+-+2013+-+M09+-+Scotland+Vs+Ireland+%28RTE2HD+Coverage%29&amp;tr=udp%3A%2F%2Ftracker.openbittorrent.com%3A80&amp;tr=udp%3A%2F%2Fopen.demonii.com%3A1337&amp;tr=udp%3A%2F%2Ftracker.coppersurfer.tk%3A6969&amp;tr=udp%3A%2F%2Fexodus.desync.com%3A6969","seeders":1,"leechers":0,"uploader":"pitiviperx","files":1,"time":1361826744,"description":"Six Nations - 2013 - M09 - Scotland Vs Ireland (RTE2HD Coverage).ts\n\n\nGeneral\nFormat                                   : MPEG-TS\nFile size                                : 5.73 GiB\nDuration                                 : 2h 58mn\nOverall bit rate mode                    : Variable\nOverall bit rate                         : 4 598 Kbps\n\nVideo\nID                                       : 4113 (0x1011)\nMenu ID                                  : 1 (0x1)\nFormat                                   : AVC\nFormat/Info                              : Advanced Video Codec\nFormat profile                           : &lt;a class=&quot;__cf_email__&quot; href=&quot;/cdn-cgi/l/email-protection&quot; data-cfemail=&quot;084569616648443c2638&quot;&gt;[email&amp;#160;protected]&lt;/a&gt;&lt;script cf-hash='f9e31' type=&quot;text/javascript&quot;&gt;\n/* &lt;![CDATA[ */!function(){try{var t=&quot;currentScript&quot;in document?document.currentScript:function(){for(var t=document.getElementsByTagName(&quot;script&quot;),e=t.length;e--;)if(t[e].getAttribute(&quot;cf-hash&quot;))return t[e]}();if(t&amp;&amp;t.previousSibling){var e,r,n,i,c=t.previousSibling,a=c.getAttribute(&quot;data-cfemail&quot;);if(a){for(e=&quot;&quot;,r=parseInt(a.substr(0,2),16),n=2;a.length-n;n+=2)i=parseInt(a.substr(n,2),16)^r,e+=String.fromCharCode(i);e=document.createTextNode(e),c.parentNode.replaceChild(e,c)}}}catch(u){}}();/* ]]&gt; */&lt;/script&gt;\nFormat settings, CABAC                   : Yes\nFormat settings, ReFrames                : 4 frames\nFormat settings, GOP                     : M=4, N=32\nCodec ID                                 : 27\nDuration                                 : 2h 58mn\nBit rate mode                            : Variable\nBit rate                                 : 3 983 Kbps\nMaximum bit rate                         : 20.0 Mbps\nWidth                                    : 1 280 pixels\nHeight                                   : 720 pixels\nDisplay aspect ratio                     : 16:9\nFrame rate                               : 50.000 fps\nColor space                              : YUV\nChroma subsampling                       : 4:2:0\nBit depth                                : 8 bits\nScan type                                : Progressive\nBits/(Pixel*Frame)                       : 0.086\nStream size                              : 4.97 GiB (87%)\nColor primaries                          : BT.709\nTransfer characteristics                 : BT.709\nMatrix coefficients                      : BT.709\n\nAudio\nID                                       : 4352 (0x1100)\nMenu ID                                  : 1 (0x1)\nFormat                                   : AC-3\nFormat/Info                              : Audio Coding 3\nMode extension                           : CM (complete main)\nFormat settings, Endianness              : Big\nCodec ID                                 : 129\nDuration                                 : 2h 58mn\nBit rate mode                            : Constant\nBit rate                                 : 384 Kbps\nChannel(s)                               : 2 channels\nChannel positions                        : Front: L R\nSampling rate                            : 48.0 KHz\nBit depth                                : 16 bits\nCompression mode                         : Lossy\nStream size                              : 490 MiB (8%)\nLanguage                                 : English\n\n","torrent":{"xt":"urn:btih:40de81f968183ef23bb9cb11d533a7f4a5e0d6d9","amp;dn":"Six+Nations+-+2013+-+M09+-+Scotland+Vs+Ireland+%28RTE2HD+Coverage%29","amp;tr":["udp%3A%2F%2Ftracker.openbittorrent.com%3A80","udp%3A%2F%2Fopen.demonii.com%3A1337","udp%3A%2F%2Ftracker.coppersurfer.tk%3A6969","udp%3A%2F%2Fexodus.desync.com%3A6969"],"infoHash":"40de81f968183ef23bb9cb11d533a7f4a5e0d6d9","infoHashBuffer":{"type":"Buffer","data":[64,222,129,249,104,24,62,242,59,185,203,17,213,51,167,244,165,224,214,217]},"announce":[],"urlList":[]}}